<svg id="Livello_1" data-name="Livello 1" xmlns="http://www.w3.org/2000/svg" viewBox="0 0 46.49 44.33"><defs><style>.cls-1{fill:#0b113b;}</style></defs><path class="cls-1" d="M22.39,1.56a1.2,1.2,0,0,1,2.22,0l5.57,13.38a1.2,1.2,0,0,0,1,.74l14.45,1.15a1.2,1.2,0,0,1,.68,2.11l-11,9.43a1.19,1.19,0,0,0-.38,1.19l3.36,14.1A1.2,1.2,0,0,1,36.5,45L24.13,37.41a1.19,1.19,0,0,0-1.26,0L10.5,45a1.2,1.2,0,0,1-1.79-1.31l3.36-14.1a1.19,1.19,0,0,0-.38-1.19l-11-9.43a1.2,1.2,0,0,1,.68-2.11l14.45-1.15a1.22,1.22,0,0,0,1-.74Z" transform="translate(-0.26 -0.82)"/></svg>